<svg xmlns="http://www.w3.org/2000/svg" data-name="Layer 1" viewBox="0 0 100 125" x="0px" y="0px"><title>Artboard 12</title><path d="M3.14,70.94A51.77,51.77,0,0,0,10.93,81a10.58,10.58,0,0,0,7,7.43,9.16,9.16,0,0,0,1.28.32l.27,0,.42.07.29,0,.33,0a10.86,10.86,0,0,0,2.66-.15,10.26,10.26,0,0,0,4.63-2.16L44.34,72.44l5.56,2.79,2.21,5.35L34.28,94.83a20.55,20.55,0,0,1-8.57,3.82l-.88.15a20.76,20.76,0,0,1-5.13.09c-.28,0-.58-.07-.89-.12l-.35-.05c-.26,0-.57-.11-.88-.17l-.33-.07a18.4,18.4,0,0,1-2.48-.72A20.13,20.13,0,0,1,1.94,83.12a20,20,0,0,1,.37-9.93A18.92,18.92,0,0,1,3.14,70.94ZM96.56,31.76a7.23,7.23,0,0,0-5.28-2.33A7.23,7.23,0,0,0,86,31.66l-8.53,8.86L57,36.66a6.09,6.09,0,0,0-5.26,1.52l-3.6,3.35a1.66,1.66,0,0,0,.34,2.67l16.7,9.06L59.67,59l-7.8-1.12a5.72,5.72,0,0,0-4.74,1.48l-1.67,1.55a1.66,1.66,0,0,0,.39,2.69L56.64,69l4.61,11.16a1.66,1.66,0,0,0,2.66.58l1.67-1.55a5.73,5.73,0,0,0,1.82-4.62l-.56-8,6-5,7.82,17.32a1.66,1.66,0,0,0,2,.89,1.66,1.66,0,0,0,.6-.36L86.89,76a6.09,6.09,0,0,0,1.9-5.13L86.43,50.19l9.45-7.86a7.29,7.29,0,0,0,.68-10.57ZM58.19,24c-.91,1.5-.15,2.79.58,3.91a1.39,1.39,0,0,0,2.34.33c.71-.67,2.24-1.41,2.84-1.09,2.22,1.21,4.38,1,6.65.55.1,0,2,.95,2.11.92,1.44-.35,4.39.85,5.21-.83l1.94-2a15.83,15.83,0,0,1,5.63-3.73A43.62,43.62,0,1,0,14,71.77l.71.86.62.72c.52.59,1.06,1.18,1.62,1.74l.14.17A43.84,43.84,0,0,0,22.63,80L30,73.6a34.5,34.5,0,0,1-7-5.8h.05c3-.85,6.1-1.71,9.15-2.53.3-.08.67.13,1,.08,1.25-.17,2.51-.24,3.23-1.62A3.22,3.22,0,0,1,38,62.49c1.12-.51,3-2.85,2.77-4-.15-.87-.5-2.09-1.14-2.42a4.08,4.08,0,0,1-2-2.72c-.53-1.55-1.07-3.09-1.66-4.61-.17-.43-.46-1-.82-1.12a2.63,2.63,0,0,1-1.74-2.2c-.49-2.64-2.08-4.12-4.55-5.06s-4-.66-5.06,1.89a3.44,3.44,0,0,1-2.48,2.27,2.11,2.11,0,0,0-1,.73c-2,2.47-.38,5.38-.95,8,0,.17.12.37.19.56.26.75.48,1.52.81,2.23a2.68,2.68,0,0,1-.11,2.52c-.53,1.07-1,2.16-1.56,3.24a34.12,34.12,0,0,1-4.21-22.75,2.75,2.75,0,0,0,1,1.5c.67.4,1.2.47,1.55-.43s.89-1.78,1.24-2.71a2.38,2.38,0,0,1,1.89-1.69c1.08-.18,2.16-.39,3.26-.48a4.76,4.76,0,0,1,2.11.15c1.91.78,3.12.44,4.24-1.31a2.61,2.61,0,0,1,1.06-.83c1.57-.76,3.19-1.43,4.76-2.2a25.65,25.65,0,0,1,8.82-2.48c2.77-.26,5-1.65,7.4-2.15a10.93,10.93,0,0,1-2.16-2.36,3.43,3.43,0,0,0-2-2c-.8-.3-1.51-.83-2.32-1A10.44,10.44,0,0,0,43,20.86a11.79,11.79,0,0,1-2.4-.14c-.81-.21-1.52-.79-2.32-1-1.58-.49-2-1.7-2.2-3.21l7.81-2.76c2.48-.88,3.93-.22,4.77,2.27a9.94,9.94,0,0,1,.26,2l.58-.28,1.89-.12a3.21,3.21,0,0,0,0-3.21,2.72,2.72,0,0,0-.71-.77,4.91,4.91,0,0,1-1.51-1.86,3.15,3.15,0,0,0-.89-1.25,33.88,33.88,0,0,1,5.56.47c1.86.76,3.23,1.85,3.56,4,0,.21.39.4.63.56,2.29,1.43,2.78,3.07,1.63,5.54A31.11,31.11,0,0,1,58.19,24Z"/><text x="0" y="115" fill="#000000" font-size="5px" font-weight="bold" font-family="'Helvetica Neue', Helvetica, Arial-Unicode, Arial, Sans-serif">Created by Gregor Cresnar</text><text x="0" y="120" fill="#000000" font-size="5px" font-weight="bold" font-family="'Helvetica Neue', Helvetica, Arial-Unicode, Arial, Sans-serif">from the Noun Project</text></svg>